<?xml version="1.0" encoding="iso-8859-1"?>
<!-- Generator: Adobe Illustrator 28.0.0, SVG Export Plug-In . SVG Version: 6.00 Build 0)  -->
<svg version="1.1" id="Icarian_x5F_Logo" xmlns="http://www.w3.org/2000/svg" xmlns:xlink="http://www.w3.org/1999/xlink" x="0px"
	 y="0px" viewBox="0 0 1024 1024" style="enable-background:new 0 0 1024 1024;" xml:space="preserve">
<g id="WingLines">
	<line style="stroke:#000000;stroke-width:4;stroke-miterlimit:10;" x1="438.44" y1="557.787" x2="479.383" y2="582.899"/>
	<line style="stroke:#000000;stroke-width:4;stroke-miterlimit:10;" x1="472.811" y1="515.225" x2="503.826" y2="532.921"/>
	<line style="stroke:#000000;stroke-width:4;stroke-miterlimit:10;" x1="505.985" y1="470.737" x2="528.808" y2="487.876"/>
	<line style="stroke:#000000;stroke-width:4;stroke-miterlimit:10;" x1="545.512" y1="440.975" x2="587.351" y2="474.386"/>
	<line style="stroke:#000000;stroke-width:4;stroke-miterlimit:10;" x1="593.994" y1="413.689" x2="645.888" y2="460.073"/>
</g>
<path id="Sun_x2F_Wing" d="M519.251,251.303c-104.838,0-189.826,84.988-189.826,189.826c0,3.717,0.135,7.4,0.345,11.064
	l243.183-124.807l121.348,117.356L526.65,486.256l-66.206,135.367c18.521,6.031,38.274,9.332,58.807,9.332
	c104.838,0,189.826-84.988,189.826-189.826S624.089,251.303,519.251,251.303z"/>
<g id="Gears">
	<path d="M573.711,143.284l19.796-9.246l-2.216-12.567l-21.68-1.373c-1.991-4.897-4.648-9.448-7.861-13.548l9.22-19.806
		l-9.776-8.203l-17.491,12.884c-4.575-2.428-9.521-4.248-14.735-5.346L523.307,65h-12.761l-5.117,21.111
		c-5.21,1.111-10.153,2.939-14.723,5.379l-17.889-12.509l-9.776,8.203l9.658,19.476c-3.202,4.108-5.847,8.666-7.825,13.569
		l-21.747,1.916l-2.216,12.567l19.919,8.712c0.194,5.367,1.134,10.541,2.725,15.425l-15.426,15.445l6.381,11.051l20.846-6.126
		c3.51,3.882,7.557,7.266,12.015,10.054l-1.889,21.755l11.991,4.365l12.035-18.097c2.538,0.349,5.126,0.544,7.761,0.544
		c2.683,0,5.319-0.2,7.902-0.562l12.537,17.881l11.992-4.365l-2.413-21.598c4.451-2.798,8.487-6.192,11.987-10.083l21.097,5.639
		l6.38-11.051l-15.723-14.986C572.606,153.83,573.53,148.652,573.711,143.284z M517.209,176.935
		c-19.259,0-34.871-15.612-34.871-34.871c0-19.259,15.612-34.871,34.871-34.871c19.259,0,34.871,15.612,34.871,34.871
		C552.08,161.323,536.468,176.935,517.209,176.935z"/>
	<path d="M351.378,629.312l19.796-9.246l-2.216-12.567l-21.68-1.373c-1.99-4.897-4.648-9.448-7.861-13.548l9.22-19.806l-9.776-8.203
		l-17.491,12.884c-4.575-2.428-9.521-4.248-14.735-5.346l-5.662-21.079h-12.761l-5.117,21.111
		c-5.21,1.111-10.153,2.939-14.723,5.379l-17.889-12.509l-9.776,8.203l9.658,19.476c-3.202,4.107-5.847,8.666-7.825,13.569
		l-21.747,1.916l-2.216,12.567l19.919,8.712c0.194,5.367,1.134,10.541,2.725,15.425l-15.426,15.445l6.381,11.051l20.846-6.126
		c3.51,3.882,7.557,7.266,12.015,10.054l-1.889,21.755l11.991,4.365l12.035-18.097c2.538,0.349,5.126,0.544,7.761,0.544
		c2.683,0,5.319-0.2,7.902-0.562l12.537,17.881l11.991-4.365l-2.413-21.598c4.451-2.798,8.487-6.192,11.987-10.083l21.097,5.639
		l6.381-11.051l-15.723-14.986C350.273,639.857,351.197,634.68,351.378,629.312z M294.876,662.962
		c-19.259,0-34.871-15.612-34.871-34.871c0-19.259,15.612-34.871,34.871-34.871c19.259,0,34.871,15.612,34.871,34.871
		C329.748,647.35,314.135,662.962,294.876,662.962z"/>
	<path d="M796.896,628.856l19.796-9.246l-2.216-12.567l-21.68-1.373c-1.99-4.897-4.648-9.448-7.861-13.548l9.22-19.806l-9.776-8.203
		l-17.491,12.884c-4.575-2.428-9.521-4.247-14.735-5.346l-5.662-21.079h-12.761l-5.117,21.111
		c-5.21,1.111-10.153,2.939-14.723,5.379l-17.889-12.509l-9.776,8.203l9.658,19.476c-3.202,4.107-5.847,8.666-7.825,13.569
		l-21.747,1.916l-2.216,12.567l19.919,8.712c0.194,5.367,1.134,10.541,2.725,15.425l-15.426,15.445l6.381,11.051l20.846-6.126
		c3.51,3.882,7.557,7.266,12.015,10.054l-1.889,21.755l11.991,4.365l12.035-18.097c2.538,0.349,5.126,0.544,7.76,0.544
		c2.683,0,5.319-0.2,7.902-0.562l12.537,17.881l11.991-4.365l-2.413-21.598c4.451-2.798,8.487-6.192,11.987-10.083l21.097,5.639
		l6.381-11.051l-15.723-14.986C795.791,639.401,796.715,634.224,796.896,628.856z M740.394,662.506
		c-19.259,0-34.871-15.612-34.871-34.871c0-19.259,15.612-34.871,34.871-34.871c19.259,0,34.871,15.612,34.871,34.871
		C775.266,646.894,759.653,662.506,740.394,662.506z"/>
</g>
<g id="Omega">
	<path d="M749.954,546.055l5.859,21.817c3.651,0.95,7.206,2.237,10.622,3.848l18.127-13.35l6.448,5.409l-42.991-94.321
		c-1.041,26.713-5.073,52.427-11.715,76.597H749.954z"/>
	<path d="M576.141,157.351l16.296,15.533l-9.324,16.151c16.596,5.111,32.422,12.696,47.275,22.344l-33.665-73.86l-18.657,8.715
		C577.767,150.003,577.123,153.723,576.141,157.351z"/>
	<path d="M795.837,601.336l9.182,0.581l-8.612-23.738l-6.237,13.399C792.359,594.656,794.258,597.922,795.837,601.336z"/>
	<path d="M566.983,106.009c2.19,3.075,4.089,6.341,5.668,9.756l12.856,0.815l-8.845-11.454c-2.835-0.556-5.68-1.086-8.54-1.566
		L566.983,106.009z"/>
	<path d="M602.923,114.832l52.797,115.832c51.181,45.362,86.177,118.052,91.794,201.39l58.284,127.871l11.616,32.019
		c19.577-44.23,30.526-93.464,30.526-145.377c0-161.192-105.272-296.708-248.03-335.965l2.656,3.439L602.923,114.832z"/>
	<path d="M307.898,714.764c7.29,6.271,14.829,12.239,22.621,17.853h-0.005l0.124,98.355l-137.211-13.357l-65.57-60.713H55.003
		l78.927,145.711l284.136-20.642v-42.438h-0.081V715.695l-88.889-0.002L307.898,714.764z"/>
	<path d="M366.048,668.671l-4.832,8.367l-21.839-5.836c-2.643,2.678-5.531,5.109-8.63,7.264L333,702l0,0l72.826-0.353
		C391.592,692.494,378.257,681.421,366.048,668.671z"/>
	<path d="M906.56,756.903l-65.57,60.713l-137.211,13.357l0.124-98.355h-0.005c7.771-5.599,15.28-11.56,22.552-17.81l-20.354,0.891
		l-89.664-0.001v123.835h-0.081v42.438l284.136,20.642l78.927-145.711H906.56z"/>
	<path d="M268.749,572.269c3.407-1.62,6.957-2.919,10.608-3.881l5.303-21.878h13.572c-6.561-23.74-10.582-48.984-11.741-75.197
		l-42.503,93.249l6.245-5.24L268.749,572.269z"/>
	<path d="M467.425,106.19l-1.29-2.601c-2.431,0.41-4.854,0.849-7.267,1.313l-9.383,12.151l12.31-1.085
		C463.364,112.544,465.248,109.272,467.425,106.19z"/>
	<path d="M442.488,173.555l15.968-15.99c-0.997-3.625-1.655-7.344-1.968-11.111l-18.281-7.997l-32.848,72.068
		c14.499-9.258,29.908-16.561,46.048-21.521L442.488,173.555z"/>
	<path d="M245.094,592.216l-6.489-13.084l-8.596,23.695l9.453-0.833C241.03,598.575,242.915,595.3,245.094,592.216z"/>
	<path d="M286.787,434.375c5.17-85.13,40.965-159.348,93.449-205.025l52.558-115.31l2.913-3.772
		C292.339,149.094,186.48,284.924,186.48,446.567c0,52.373,11.151,102.014,31.056,146.544l12.15-33.46L286.787,434.375z"/>
	<path d="M669.735,668.671l4.832,8.367l21.839-5.836c2.643,2.678,5.531,5.109,8.63,7.264L702.783,702l0,0l-72.826-0.353
		C644.191,692.494,657.526,681.421,669.735,668.671z"/>
</g>
</svg>
